<?xml version="1.0" encoding="UTF-8"?>
<svg version="1.1" xmlns="http://www.w3.org/2000/svg" width="2160" height="2160">
<path d="M0 0 C2.05305246 -0.00074006 4.10610481 -0.0019191 6.1591568 -0.0034965 C11.8129183 -0.00656507 17.46666181 -0.00339075 23.12042197 0.00078164 C29.26657282 0.00421572 35.41272185 0.00184506 41.55887306 0.00020415 C52.33456867 -0.00187028 63.11025735 -0.00025738 73.885952 0.00384235 C85.44701318 0.0082215 97.00807172 0.01041482 108.56913376 0.00994015 C109.29951987 0.00991146 110.02990597 0.00988276 110.78242499 0.0098532 C114.50670954 0.00969682 118.23099408 0.00950488 121.95527863 0.00930037 C148.90763655 0.00789308 175.85999212 0.01132295 202.81234932 0.01731777 C229.5036209 0.02324034 256.19489148 0.02709288 282.88616371 0.02817059 C283.71510944 0.028205 284.54405517 0.02823941 285.39812047 0.02827486 C292.96926926 0.02858806 300.54041804 0.02887575 308.11156683 0.02913284 C326.93254619 0.02977223 345.75352552 0.03073155 364.57450485 0.03190804 C365.86009985 0.03198801 365.86009985 0.03198801 367.17166647 0.0320696 C408.86227731 0.03469109 450.55288748 0.04099863 492.24349785 0.04760838 C506.71096611 0.04990004 521.17843436 0.0521754 535.64590263 0.05438328 C536.54317716 0.05452023 537.44045168 0.05465718 538.36491634 0.05479828 C580.07745755 0.06114243 621.78999887 0.06486797 663.50254043 0.06791807 C666.21057159 0.06811614 668.91860275 0.06831533 671.62663391 0.06851475 C689.57290741 0.06983453 707.51918093 0.07110918 725.46545444 0.07235361 C761.17404272 0.07483011 796.88263098 0.07757179 832.59121923 0.08049566 C834.29175287 0.0806349 835.99228652 0.08077395 837.69282016 0.08091282 C914.24633415 0.08716585 990.79984764 0.09650378 1067.35336113 0.10717869 C1068.07017408 0.10727862 1068.78698703 0.10737856 1069.52552158 0.10748152 C1105.37552412 0.11248198 1141.22552662 0.11765848 1177.0755291 0.12304783 C1176.69792011 0.55497919 1176.32031112 0.98691056 1175.93125943 1.43193075 C1172.55355899 5.32853614 1169.36513998 9.30459197 1166.29031086 13.44815588 C1118.75609343 76.97466837 1060.03858787 154.7006955 976.79530843 166.80849045 C957.52558126 169.4224152 938.25967796 170.45486251 918.82943535 170.8554697 C917.65782987 170.88077202 916.48622438 170.90607433 915.27911571 170.93214338 C885.48185849 171.53736795 855.75452244 170.82242949 825.98227891 169.60033813 C806.23902205 168.79000919 786.51489456 168.33762574 766.75622368 168.205369 C765.75992909 168.19849304 765.75992909 168.19849304 764.74350733 168.19147818 C758.67280145 168.14975646 752.60207674 168.11186654 746.53131891 168.07853924 C731.467986 167.99581975 716.40525856 167.86609325 701.34257317 167.70409489 C700.6581548 167.69677278 699.97373643 167.68945068 699.26857811 167.68190669 C666.32052045 167.32534901 633.39076379 166.42674994 600.45541191 165.47509861 C589.09084117 165.14705578 577.7262104 164.82136643 566.3612957 164.50543308 C565.65613593 164.48582624 564.95097617 164.46621941 564.22444792 164.44601842 C531.20813704 163.53126101 498.18875091 163.00380397 465.16299939 162.57257897 C463.00882088 162.54444336 460.85464464 162.51613856 458.70046879 162.48779976 C443.70782036 162.29085859 428.71507765 162.10191227 413.72226651 161.91780817 C385.98674059 161.57722633 358.25166148 161.20506847 330.51685502 160.81029486 C328.4864291 160.78141486 326.45600161 160.7526478 324.42557393 160.72389192 C283.6271627 160.14501903 242.8357971 159.3610842 202.04452324 158.40124607 C199.54989614 158.34289589 197.05526851 158.2845683 194.56064034 158.22626376 C172.35801174 157.70622812 150.1557936 157.1733507 127.95505195 156.5777084 C119.58272066 156.35343155 111.21016272 156.13979255 102.83735628 155.93402442 C98.0731742 155.81618723 93.30936058 155.69208888 88.54579937 155.55122417 C48.92874702 154.38417258 14.4793032 158.76320732 -15.6510334 186.94336033 C-16.40126778 187.6626572 -17.15150215 188.38195408 -17.9244709 189.12304783 C-18.63345528 189.7804697 -19.34243965 190.43789158 -20.0729084 191.11523533 C-39.81274852 209.94749659 -51.37218232 239.28269078 -52.37973462 266.30786914 C-52.46065064 270.48349372 -52.45141132 274.65604108 -52.42783546 278.83218479 C-52.43202014 280.73906096 -52.43795407 282.64593393 -52.44545293 284.55279994 C-52.4609072 289.75429719 -52.45177437 294.95549408 -52.43834112 300.15698597 C-52.42813799 305.83046693 -52.44125616 311.50390402 -52.45131445 317.17737865 C-52.46572563 327.10826306 -52.46534488 337.03906041 -52.45512581 346.96994877 C-52.44419929 357.61735885 -52.44182264 368.26472342 -52.45007515 378.91213322 C-52.45059184 379.5865119 -52.45110853 380.26089059 -52.45164088 380.95570499 C-52.45377414 383.70268228 -52.455969 386.44965951 -52.45824198 389.19663669 C-52.47936189 414.73890962 -52.48085071 440.28114837 -52.46965218 465.82342625 C-52.46932099 466.57917452 -52.46898981 467.33492279 -52.46864859 468.11357253 C-52.46831688 468.87054026 -52.46798516 469.62750799 -52.46764339 470.40741414 C-52.45754096 493.49144215 -52.45494959 516.57545605 -52.45973396 539.65948582 C-52.46004388 541.20675344 -52.46035251 542.75402106 -52.46065984 544.30128868 C-52.46190177 550.5194952 -52.46317644 556.73770171 -52.4644989 562.95590822 C-52.46816649 580.3371523 -52.47044921 597.71839642 -52.47164345 615.09964085 C-52.47169803 615.89106725 -52.47175261 616.68249366 -52.47180885 617.49790269 C-52.47344537 642.7070088 -52.46894146 667.91611 -52.46024513 693.12521458 C-52.45982364 694.35122803 -52.45982364 694.35122803 -52.45939363 695.60200944 C-52.45481412 708.87417414 -52.44993614 722.14633872 -52.44503293 735.4185033 C-52.42560837 788.05375573 -52.42650997 840.68896745 -52.44595528 893.3242197 C-52.45084025 906.58977345 -52.45568454 919.85532721 -52.46024513 933.12088108 C-52.46052693 933.93774758 -52.46080872 934.75461408 -52.46109905 935.59623411 C-52.46972691 960.77964166 -52.4733803 985.96304583 -52.47164345 1011.14645481 C-52.47158911 1011.93729621 -52.47153477 1012.72813761 -52.47147879 1013.54294389 C-52.47022874 1030.90504728 -52.46769393 1048.26715031 -52.46400144 1065.62925335 C-52.46268494 1071.84181972 -52.4614326 1078.05438611 -52.46019859 1084.2669525 C-52.45988904 1085.812403 -52.45957412 1087.3578535 -52.45925381 1088.903304 C-52.45448415 1111.97971634 -52.45853605 1135.05611277 -52.46864859 1158.13252313 C-52.46897978 1158.8882714 -52.46931096 1159.64401967 -52.46965218 1160.42266941 C-52.46998291 1161.17701658 -52.47031363 1161.93136376 -52.47065439 1162.70856994 C-52.48169924 1188.17886652 -52.47760456 1213.64912216 -52.4565292 1239.1194129 C-52.4543199 1241.85759604 -52.45217307 1244.59577922 -52.45007515 1247.33396244 C-52.44955432 1248.00593524 -52.4490335 1248.67790803 -52.44849689 1249.37024364 C-52.44014671 1260.63076766 -52.44752661 1271.89124817 -52.4591139 1283.15176917 C-52.46809304 1292.96019476 -52.46248379 1302.76854265 -52.44509482 1312.57695674 C-52.43559514 1318.16237536 -52.43229399 1323.74760133 -52.44671875 1329.33301377 C-52.45973308 1334.4243451 -52.45401797 1339.51531464 -52.43399611 1344.6066201 C-52.43000094 1346.42714277 -52.43254249 1348.24769608 -52.44281986 1350.06819412 C-52.59774466 1379.63288466 -43.99835635 1408.86951107 -23.9244709 1431.12304783 C-23.23997871 1431.94933689 -22.55548653 1432.77562595 -21.85025215 1433.62695408 C-5.88402572 1452.48539898 16.7554568 1464.19633727 40.6380291 1469.43554783 C41.35643974 1469.59514988 42.07485039 1469.75475193 42.81503105 1469.91919041 C56.22843798 1472.61257991 70.14189212 1472.26892415 83.76058197 1472.25168228 C85.61698279 1472.25303137 87.47338334 1472.25481664 89.32978338 1472.25699452 C94.41436648 1472.2616999 99.49893157 1472.26023087 104.58351553 1472.25771674 C110.12167179 1472.25607806 115.65982428 1472.26022916 121.19797933 1472.26362592 C130.89904871 1472.26877226 140.60011309 1472.27019845 150.3011837 1472.26916981 C164.05176947 1472.26771535 177.80235028 1472.27131531 191.55293501 1472.27630938 C219.49382726 1472.28644231 247.4347175 1472.28951494 275.37561138 1472.29010149 C278.38112534 1472.29016624 281.3866393 1472.29023418 284.39215326 1472.2903049 C285.13801421 1472.2903219 285.88387516 1472.29033891 286.65233795 1472.29035643 C303.19470721 1472.29076522 319.73707609 1472.29295622 336.27944515 1472.29546074 C343.09510909 1472.29648913 349.91077303 1472.29747917 356.72643697 1472.29847699 C357.47955161 1472.29858758 358.23266624 1472.29869817 359.00860254 1472.29881211 C402.15416482 1472.30513444 445.29972685 1472.30926141 488.44528961 1472.30880356 C490.05926433 1472.30878778 491.67323905 1472.30877204 493.28721378 1472.30875635 C500.57386765 1472.30868297 507.86052153 1472.3085948 515.1471754 1472.30850247 C518.39635416 1472.30846134 521.64553292 1472.3084212 524.89471169 1472.30838115 C526.52098223 1472.30836076 528.14725278 1472.30833974 529.77352332 1472.30831809 C581.19401907 1472.3076379 632.61450794 1472.31495497 684.03500175 1472.32885838 C696.99070356 1472.33235953 709.94640538 1472.33582905 722.90210724 1472.33912277 C724.09878381 1472.33942708 724.09878381 1472.33942708 725.31963566 1472.33973754 C749.91689821 1472.34595469 774.51416019 1472.34971852 799.11142349 1472.35098076 C799.88393268 1472.35102071 800.65644186 1472.35106066 801.45236041 1472.35110182 C818.4126269 1472.35195519 835.37289335 1472.35221626 852.33315986 1472.35193145 C858.40216756 1472.35183497 864.47117527 1472.35178292 870.54018298 1472.35175272 C872.04993488 1472.3517448 873.55968679 1472.3517346 875.06943869 1472.35172209 C899.10112957 1472.35154595 923.13281455 1472.35723644 947.16450374 1472.36587591 C971.37549377 1472.37453559 995.58647564 1472.37670873 1019.79746657 1472.37011459 C1034.81129454 1472.36602664 1049.82510101 1472.36723616 1064.83892693 1472.37750612 C1074.42351683 1472.38350796 1084.00808801 1472.38220835 1093.59267705 1472.37503562 C1099.04948369 1472.37115591 1104.50624031 1472.37037336 1109.96304341 1472.37849297 C1114.93885367 1472.38583179 1119.91457278 1472.3837656 1124.89037915 1472.37456911 C1126.66801111 1472.37286448 1128.44565043 1472.37442068 1130.22327485 1472.37987031 C1139.58802101 1472.40662947 1148.84803199 1472.10004289 1158.17725408 1471.24421102 C1159.02170575 1471.16827302 1159.86615741 1471.09233502 1160.73619852 1471.01409586 C1190.43915696 1468.02458895 1217.65599433 1453.10576729 1237.08724785 1430.58398533 C1255.82895873 1407.38697579 1264.61352806 1379.85558877 1264.43794346 1350.29327488 C1264.43944709 1348.65177336 1264.44227376 1347.01027262 1264.44628629 1345.36877531 C1264.45348512 1340.8855487 1264.44215194 1336.40253696 1264.42765599 1331.91933523 C1264.41523527 1327.03159498 1264.42046928 1322.14386759 1264.42346078 1317.25611687 C1264.4263314 1308.69893737 1264.41822124 1300.14182399 1264.40285492 1291.58465862 C1264.3801083 1278.86014343 1264.37479249 1266.13566264 1264.3733541 1253.41112927 C1264.3707731 1233.31399924 1264.35775984 1213.21689281 1264.33737822 1193.11977347 C1264.30577037 1161.90469845 1264.29940688 1130.68965297 1264.30236484 1099.4745653 C1264.30350669 1087.21550582 1264.30380114 1074.95644628 1264.30412351 1062.69738676 C1264.30417923 1060.63247228 1264.30424226 1058.5675578 1264.30430559 1056.50264332 C1264.30521642 1024.78147915 1264.29937968 993.06031742 1264.2902569 961.33915464 C1264.28964027 959.18940425 1264.28903383 957.03965386 1264.28842864 954.88990347 C1264.27903856 921.76471082 1264.2640339 888.63952784 1264.2375164 855.51434422 C1264.23694716 854.80135364 1264.23637792 854.08836307 1264.23579142 853.35376673 C1264.22947122 845.44360785 1264.22305018 837.53344906 1264.2165936 829.6232903 C1264.21572377 828.5572944 1264.21572377 828.5572944 1264.21483636 827.46976322 C1264.21190921 823.88376592 1264.20897523 820.29776863 1264.20603191 816.71177134 C1264.179504 784.31373541 1264.15867977 751.91571891 1264.16291332 719.51767063 C1264.16304276 718.49649676 1264.16304276 718.49649676 1264.16317482 717.45469312 C1264.16504236 703.18225873 1264.16854993 688.90982532 1264.17422131 674.63739193 C1264.17686874 667.9544287 1264.17911164 661.27146537 1264.18114471 654.58850193 C1264.18154898 653.27324291 1264.18195324 651.95798389 1264.18236976 650.60286854 C1264.18800481 629.41251835 1264.16454017 608.22229456 1264.12971379 587.03197628 C1264.09523488 565.75428621 1264.08904826 544.47674356 1264.11222746 523.19903666 C1264.12509037 510.54961513 1264.11539103 497.90066893 1264.07390029 485.2513065 C1264.04838341 476.80991943 1264.05166691 468.36886588 1264.07866664 459.92748413 C1264.09322401 455.11272661 1264.09493243 450.29888508 1264.06154516 445.48420095 C1264.03142321 441.10594602 1264.03795336 436.72935045 1264.07399387 432.35115422 C1264.0804899 430.77545071 1264.07351127 429.1996208 1264.05156487 427.62405675 C1263.8989714 415.90284531 1263.8989714 415.90284531 1266.83478437 411.4617945 C1268.81510236 409.45844313 1270.80852683 407.78673935 1273.0755291 406.12304783 C1274.3130291 404.88554783 1274.3130291 404.88554783 1275.5755291 403.62304783 C1404.8333416 274.36523533 1404.8333416 274.36523533 1406.52572441 272.67675877 C1407.88245705 271.31660651 1409.22619877 269.94352124 1410.5677166 268.56836033 C1412.57413019 266.61195082 1414.6014794 264.78482434 1416.73226738 262.9702158 C1417.35932579 262.43540592 1417.9863842 261.90059605 1418.63244438 261.34957981 C1419.10866234 260.94482426 1419.58488029 260.5400687 1420.0755291 260.12304783 C1420.08102762 295.60384207 1420.0862995 331.08463634 1420.09139824 366.56543064 C1420.09154794 367.60692464 1420.09154794 367.60692464 1420.09170066 368.66945891 C1420.10238997 443.08186517 1420.11161254 517.49427143 1420.11787224 591.9066782 C1420.11801169 593.55997479 1420.11815114 595.21327137 1420.11829059 596.86656796 C1420.12121341 631.57131337 1420.12393011 666.2760588 1420.12640878 700.98080425 C1420.12765415 718.41469592 1420.12893912 735.84858758 1420.13026154 753.28247924 C1420.13046079 755.91228126 1420.13065891 758.54208328 1420.13085698 761.17188529 C1420.1339162 801.65696948 1420.13782356 842.14205337 1420.14419365 882.62713718 C1420.14433055 883.49730051 1420.14446745 884.36746384 1420.14460849 885.26399575 C1420.14682081 899.29319677 1420.14910444 913.32239777 1420.15139754 927.35159877 C1420.15800299 967.77047501 1420.16407924 1008.18935101 1420.16666889 1048.60822773 C1420.16672243 1049.43978787 1420.16677596 1050.271348 1420.16683112 1051.12810693 C1420.16799701 1069.38490759 1420.1688918 1087.64170825 1420.16953008 1105.89850893 C1420.1697917 1113.24494896 1420.17009232 1120.59138899 1420.17040634 1127.93782902 C1420.17043977 1128.74185405 1420.1704732 1129.54587907 1420.17050764 1130.3742685 C1420.17160323 1156.2601259 1420.17587139 1182.14598159 1420.18181131 1208.0318383 C1420.18778255 1234.11772245 1420.19062656 1260.20360493 1420.18915309 1286.28948978 C1420.18895002 1289.89833166 1420.18878263 1293.50717355 1420.18863678 1297.11601543 C1420.18859196 1298.1771234 1420.18859196 1298.1771234 1420.18854623 1299.25966789 C1420.18816631 1310.43886425 1420.19114367 1321.61805708 1420.19553896 1332.79725248 C1420.19979663 1343.8033522 1420.20037672 1354.80944828 1420.19736091 1365.81554868 C1420.19585279 1371.69767774 1420.19590929 1377.57979501 1420.20041228 1383.46192279 C1420.20448484 1388.82266445 1420.20387405 1394.18338523 1420.19966907 1399.54412659 C1420.19896013 1401.4622679 1420.1998952 1403.38041078 1420.20276434 1405.29855008 C1420.2262375 1422.06673133 1420.19116361 1438.9866611 1417.3880291 1455.56054783 C1417.21432793 1456.60493015 1417.04062675 1457.64931248 1416.86166191 1458.72534275 C1409.93041409 1498.3097351 1391.27245455 1534.59408538 1363.53500175 1563.59619236 C1362.55044483 1564.62620558 1361.5710477 1565.66117242 1360.59652519 1566.70068455 C1333.43816811 1595.59872286 1296.56638149 1614.61396504 1258.0130291 1622.93554783 C1256.66930229 1623.22824558 1256.66930229 1623.22824558 1255.29842949 1623.52685642 C1238.45909438 1626.90456142 1221.43780807 1627.41803665 1204.32165909 1627.37752342 C1202.1914855 1627.37991894 1200.06131275 1627.38318775 1197.93114167 1627.38724002 C1192.109681 1627.39580582 1186.28828535 1627.39205626 1180.46682378 1627.3861843 C1174.12112778 1627.38199565 1167.77544325 1627.38942631 1161.42975008 1627.39533681 C1150.31843571 1627.40408421 1139.20714019 1627.40548488 1128.09582329 1627.40183353 C1116.18094916 1627.39794948 1104.26608697 1627.39842459 1092.35121346 1627.40414333 C1091.59692546 1627.40450216 1090.84263747 1627.40486098 1090.06549226 1627.40523068 C1086.99307096 1627.4067057 1083.92064967 1627.40821011 1080.8482284 1627.40975215 C1049.70251304 1627.42536554 1018.55680588 1627.42806846 987.4110873 1627.42559609 C983.11132369 1627.42525762 978.81156009 1627.42493553 974.51179647 1627.4246304 C973.23063774 1627.42453884 973.23063774 1627.42453884 971.92359701 1627.42444542 C952.97467361 1627.42317219 934.02575134 1627.42577735 915.07682827 1627.42915647 C910.74689438 1627.42992722 906.41696049 1627.43067196 902.0870266 1627.43142148 C900.3491729 1627.43172318 898.6113192 1627.43202506 896.8734655 1627.43232713 C896.01202608 1627.43247681 895.15058667 1627.43262649 894.26304303 1627.4327807 C892.52054774 1627.43308424 890.77805245 1627.43338892 889.03555716 1627.43369475 C839.60778695 1627.44236508 790.18001773 1627.44701364 740.75224686 1627.44274712 C739.3800386 1627.44263003 739.3800386 1627.44263003 737.98010897 1627.44251058 C727.77964009 1627.44163782 717.57917121 1627.44070856 707.37870233 1627.43975995 C705.99734093 1627.43963168 705.99734093 1627.43963168 704.58807325 1627.43950083 C696.93724928 1627.43879014 696.93724928 1627.43879014 693.41544215 1627.4384586 C634.5181147 1627.43292349 575.62080293 1627.4404642 516.72347832 1627.45922947 C501.88314314 1627.46395191 487.04280795 1627.46863252 472.20247269 1627.47306633 C470.83169563 1627.47347631 470.83169563 1627.47347631 469.43322611 1627.47389458 C441.25526585 1627.48226949 413.07730689 1627.48694588 384.8993454 1627.4877739 C383.57181026 1627.48781344 383.57181026 1627.48781344 382.21745622 1627.48785379 C362.78656971 1627.48839465 343.35568331 1627.48802196 323.92479684 1627.48681408 C316.97166785 1627.48638848 310.01853887 1627.48602335 303.06540988 1627.48568464 C301.33574135 1627.48559934 299.60607282 1627.4855104 297.87640429 1627.48541782 C270.35066523 1627.48397088 242.82493685 1627.4910834 215.29920035 1627.50242178 C186.79471388 1627.51408729 158.29024642 1627.51461857 129.78575985 1627.50257836 C126.71992362 1627.50132661 123.65408738 1627.50012311 120.58825111 1627.49895763 C119.83587666 1627.49866734 119.08350221 1627.49837705 118.30832854 1627.49807795 C106.43206347 1627.49376552 94.55582557 1627.4994607 82.67956477 1627.50939783 C70.97983613 1627.51897396 59.28015773 1627.51745841 47.58043041 1627.5051916 C41.33121885 1627.49894348 35.08210501 1627.49731302 28.83289914 1627.50905494 C-28.80945819 1627.61011125 -28.80945819 1627.61011125 -52.7369709 1621.43554783 C-54.26293892 1621.05317966 -54.26293892 1621.05317966 -55.81973457 1620.66308689 C-84.94479872 1613.07175059 -112.26952348 1598.97344388 -134.9244709 1579.12304783 C-135.72626778 1578.43082127 -136.52806465 1577.7385947 -137.3541584 1577.02539158 C-149.08377163 1566.70108345 -159.73247455 1555.77287017 -168.9244709 1543.12304783 C-169.34293282 1542.54893162 -169.76139473 1541.97481541 -170.19253731 1541.38330173 C-184.71442487 1521.18410971 -194.79566045 1498.52717599 -201.2369709 1474.56054783 C-201.58272163 1473.28848484 -201.58272163 1473.28848484 -201.93545723 1471.99072361 C-206.21125496 1455.12935157 -207.36629445 1438.38431183 -207.30199432 1421.05848122 C-207.30513115 1418.89439029 -207.30958037 1416.73030095 -207.31520742 1414.56621507 C-207.32682193 1408.65059007 -207.31993554 1402.73511319 -207.30987356 1396.81949077 C-207.30223306 1390.37182072 -207.31205522 1383.9241726 -207.31960356 1377.4765057 C-207.33094527 1366.18629744 -207.33022277 1354.89612818 -207.32246208 1343.60591793 C-207.31419096 1331.49915 -207.3124812 1319.39240731 -207.31867409 1307.28563786 C-207.31906161 1306.51925858 -207.31944912 1305.75287931 -207.31984838 1304.96327643 C-207.3214483 1301.84162456 -207.32309444 1298.71997271 -207.32479921 1295.5983209 C-207.34064514 1266.56175922 -207.34175307 1237.52521445 -207.33335686 1208.48865032 C-207.33310847 1207.62923973 -207.33286008 1206.76982914 -207.33260417 1205.8843758 C-207.33235538 1205.02358075 -207.33210659 1204.1627857 -207.33185027 1203.27590595 C-207.32427544 1177.03262371 -207.32232899 1150.78934844 -207.3259182 1124.54606533 C-207.32615064 1122.78749141 -207.32638211 1121.02891749 -207.32661261 1119.27034356 C-207.32754404 1112.20303924 -207.32850004 1105.13573492 -207.3294919 1098.06843061 C-207.33224269 1078.31329778 -207.33395466 1058.55816492 -207.33485031 1038.80303192 C-207.33489125 1037.90348779 -207.33493219 1037.00394365 -207.33497436 1036.07714061 C-207.33620189 1007.4210352 -207.33282314 978.76493223 -207.32630157 950.10882759 C-207.32609083 949.17962716 -207.32588008 948.25042674 -207.32566295 947.29306872 C-207.32222826 932.20424882 -207.3185698 917.11542898 -207.31489243 902.02660914 C-207.30032447 842.18822454 -207.30099948 782.34986008 -207.31558418 722.51147556 C-207.31924788 707.4313876 -207.32288108 692.35129964 -207.32630157 677.27121162 C-207.32651292 676.34262381 -207.32672426 675.41403601 -207.32694201 674.45730917 C-207.3334125 645.83149142 -207.33615302 617.20567534 -207.33485031 588.57985687 C-207.33480956 587.68096303 -207.33476881 586.78206919 -207.33472682 585.85593614 C-207.3337893 566.1219949 -207.33188822 546.38805384 -207.3291188 526.65411277 C-207.32813142 519.59287879 -207.32719217 512.53164479 -207.32626667 505.47041079 C-207.3260345 503.71382423 -207.32579831 501.95723767 -207.32555808 500.20065111 C-207.32198013 473.96635254 -207.32502115 447.73206186 -207.33260417 421.49776428 C-207.33285256 420.63843648 -207.33310094 419.77910869 -207.33335686 418.89374065 C-207.3336049 418.03600415 -207.33385295 417.17826764 -207.33410851 416.29453911 C-207.34239047 387.33920025 -207.33932457 358.38388164 -207.32351463 329.42854566 C-207.32185763 326.31631675 -207.32024751 323.20408782 -207.31867409 320.09185886 C-207.31828347 319.32808666 -207.31789285 318.56431445 -207.31749039 317.77739763 C-207.31158383 305.70608253 -207.3156816 293.63479272 -207.32398111 281.5634799 C-207.33193631 269.68070918 -207.32884467 257.79798416 -207.31493884 245.91521862 C-207.30780919 239.56449416 -207.30534861 233.21386506 -207.31615679 226.86314363 C-207.32590478 221.07625334 -207.32164882 215.2895423 -207.30661481 209.50266487 C-207.30361406 207.43144877 -207.30553639 205.36021755 -207.31323262 203.28901358 C-207.3736345 185.7795494 -205.86639567 168.51188798 -201.2369709 151.56054783 C-200.98350899 150.61493992 -200.73004707 149.66933201 -200.4689045 148.69506931 C-189.09257593 107.83378118 -164.15740964 70.38062376 -130.9244709 44.12304783 C-129.96025215 43.33027439 -128.9960334 42.53750095 -128.0025959 41.72070408 C-91.66672619 12.53211839 -45.97591385 -0.06580484 0 0 Z " fill="#000000" transform="translate(216.92447090148926,522.8769521713257)"/>
<path d="M0 0 C1.30563879 -0.00205263 2.61127758 -0.00410527 3.95648119 -0.0062201 C7.57641129 -0.01176343 11.19631764 -0.01111864 14.81625062 -0.00944251 C18.7561941 -0.00870946 22.69613098 -0.01373892 26.63607162 -0.01801753 C34.4485841 -0.02558739 42.26108973 -0.02779007 50.07360549 -0.02834659 C59.43226918 -0.02926122 68.79092656 -0.03593169 78.14958752 -0.04269341 C100.76710342 -0.05874496 123.38461864 -0.06465558 146.00213922 -0.06944216 C156.70292713 -0.07177879 167.40371451 -0.0753815 178.104502 -0.07913754 C214.73922557 -0.09197182 251.37394885 -0.10269149 288.00867462 -0.10614014 C290.30788632 -0.10636177 292.60709802 -0.10658355 294.90630972 -0.10680549 C297.21104679 -0.10702613 299.51578386 -0.10724661 301.82052094 -0.10746694 C306.44415669 -0.10790949 311.06779244 -0.1083566 315.69142818 -0.10880661 C316.83781894 -0.108916 317.98420969 -0.10902539 319.16533955 -0.1091381 C356.33975789 -0.11276899 393.51415673 -0.12869088 430.6885676 -0.15199697 C469.99808907 -0.17659657 509.3075994 -0.19031302 548.61712879 -0.19150805 C552.93280343 -0.19167951 557.24847808 -0.19189493 561.56415272 -0.19214249 C562.62678132 -0.19219826 563.68940991 -0.19225402 564.78423938 -0.19231148 C581.87929522 -0.19346176 598.97433104 -0.20448168 616.06938012 -0.21902954 C633.25366822 -0.23340043 650.43793068 -0.23662816 667.62222315 -0.22858956 C677.82803809 -0.22413625 688.03377019 -0.22798203 698.23957424 -0.24382807 C705.06258546 -0.25359098 711.88553875 -0.2523873 718.70854947 -0.24239184 C722.59230706 -0.23700933 726.47590577 -0.23625883 730.35965008 -0.24890056 C767.62089701 -0.36239196 767.62089701 -0.36239196 784.91188717 8.13142776 C785.71110592 8.52330276 786.51032467 8.91517776 787.33376217 9.31892776 C805.9067161 19.05371741 817.56181569 34.65801573 824.72048092 53.95174026 C827.73791405 63.6735762 828.20326772 73.52840788 828.16636276 83.63553619 C828.16956924 84.94970164 828.17277572 86.26386709 828.17607936 87.61785573 C828.18465015 91.24774054 828.18089354 94.87752115 828.17502364 98.50740742 C828.17083679 102.46333196 828.17826463 106.41923807 828.18417615 110.37515807 C828.1929255 117.30269882 828.19425476 124.23021 828.19067287 131.1577549 C828.18536042 141.45954983 828.19146665 151.76131621 828.19975581 162.06310804 C828.2149919 181.53366476 828.21670127 201.00420848 828.21423278 220.47476992 C828.2123997 235.51105808 828.21416005 250.54734198 828.21845722 265.58362961 C828.21905962 267.74434556 828.21966082 269.90506151 828.22026083 272.06577747 C828.22116808 275.32182828 828.22207675 278.57787909 828.22299318 281.8339299 C828.23142219 312.10530802 828.23575876 342.37668453 828.23158646 372.64806366 C828.23143008 373.78911895 828.2312737 374.93017425 828.23111259 376.10580697 C828.23030681 381.88904225 828.22946104 387.67227752 828.22859929 393.45551279 C828.2284282 394.60406792 828.22825711 395.75262304 828.22808084 396.93598287 C828.22773418 399.25864011 828.22738565 401.58129734 828.22703525 403.90395458 C828.22167821 440.04342795 828.2296082 476.18287692 828.24806881 512.32234573 C828.26878864 552.93209418 828.27951155 593.5418275 828.27549332 634.15158153 C828.27509798 638.4823753 828.27473643 642.81316908 828.27439594 647.14396286 C828.27425985 648.74347068 828.27425985 648.74347068 828.274121 650.3752918 C828.27295543 666.46689477 828.27960025 682.55848247 828.29020786 698.65008163 C828.30226093 716.95300303 828.30381758 735.25589081 828.2914177 753.55881271 C828.28479115 763.79796749 828.28641546 774.03704187 828.30000621 784.27619021 C828.30825813 791.12132222 828.3055435 797.96639408 828.29403094 804.81152121 C828.28778191 808.70785695 828.28615449 812.60403594 828.29789428 816.50036255 C828.36870632 841.68809158 827.74375353 864.85244486 810.91188717 885.13142776 C810.23384029 885.98349808 809.55579342 886.83556839 808.85719967 887.71345901 C797.56758257 901.17415633 780.42299897 910.86999275 762.91188717 913.13142776 C739.23830739 914.54644506 717.76859883 910.62298313 699.44313717 894.61580276 C683.60920638 879.07509291 674.12036903 859.65469803 673.78127664 837.31390041 C673.77360066 835.54687306 673.77121868 833.77981735 673.77322197 832.01277447 C673.77037975 831.02819825 673.76753753 830.04362204 673.76460919 829.02921018 C673.75629546 825.73412682 673.75499659 822.43907877 673.75366879 819.14398575 C673.74910118 816.7562076 673.74410086 814.36843024 673.73870522 811.98065382 C673.72796986 806.79142567 673.72028698 801.60220226 673.71530628 796.41296577 C673.7078836 788.69680675 673.69479664 780.98066454 673.68056053 773.26451545 C673.65677095 760.28361823 673.63755797 747.30271802 673.62096119 734.32180977 C673.60451538 721.47070722 673.58603062 708.61961025 673.56482792 695.76851463 C673.56351031 694.9692112 673.5621927 694.16990776 673.56083517 693.34638301 C673.554133 689.28705768 673.54739446 685.2277324 673.54064191 681.16840715 C673.49288995 652.42276906 673.44970174 623.67712574 673.40920162 594.93147659 C673.369848 567.00699356 673.32842457 539.08251486 673.28420162 511.15803909 C673.28283909 510.29715257 673.28147656 509.43626604 673.28007274 508.54929205 C673.26638727 499.90384681 673.25265974 491.25840163 673.2389014 482.61295651 C673.21087552 465.00148397 673.18313028 447.390011 673.15555477 429.77853775 C673.15428657 428.96880625 673.15301837 428.15907475 673.15171174 427.32480593 C673.06706833 373.26035357 672.98898747 319.19589135 672.91188717 265.13142776 C672.48756926 265.55593769 672.06325136 265.98044762 671.62607533 266.41782148 C635.58859961 302.47159286 599.55078236 338.52502286 563.51271725 374.57820511 C562.79912864 375.29209311 562.08554004 376.0059811 561.35032753 376.74150207 C484.89167047 453.23221964 408.43081797 529.72074182 331.96552181 606.20482254 C330.26710577 607.90365694 328.56868972 609.60249134 326.87027368 611.30132574 C291.22040614 646.95996125 255.57022966 682.61828789 219.91969626 718.27625771 C202.01136798 736.18832218 184.10309907 754.10044602 166.19488628 772.01262598 C163.49349235 774.71461765 160.79209672 777.41660764 158.09070102 780.11859755 C116.4909115 821.72756749 74.89239608 863.33781021 33.29756832 904.95174026 C32.40317934 905.84653994 31.50879036 906.74133962 30.58729869 907.66325444 C16.167023 922.09016727 1.74685417 936.51718692 -12.67330048 950.94422073 C-54.20562758 992.49635768 -95.73874358 1034.04770471 -137.27709007 1075.59382439 C-138.55828331 1076.87525853 -138.55828331 1076.87525853 -139.86535924 1078.18258023 C-158.61517665 1096.93589487 -177.36540039 1115.6888032 -196.11600893 1134.44132681 C-203.66051582 1141.98661857 -211.20496421 1149.53196883 -218.74939251 1157.07733917 C-219.5751008 1157.90314774 -220.40080909 1158.72895631 -221.25153884 1159.57978938 C-247.8597808 1186.19132111 -274.46325657 1212.80761151 -301.06423859 1239.42640015 C-327.85860774 1266.23866177 -354.65763991 1293.04625307 -381.46316996 1319.84735686 C-385.16695626 1323.55053391 -388.87068901 1327.25376452 -392.57438946 1330.95702744 C-393.30042571 1331.68297404 -394.02646196 1332.40892065 -394.7744993 1333.15686564 C-406.27330758 1344.65453172 -417.76705912 1356.15723911 -429.25871193 1367.66205645 C-440.5573015 1378.97338189 -451.86122217 1390.2793562 -463.17084244 1401.57965282 C-469.80199149 1408.20565754 -476.42900244 1414.8357369 -483.04995989 1421.47192582 C-487.44941845 1425.88068394 -491.85431218 1430.28396158 -496.26363546 1434.68285361 C-498.76187461 1437.17548652 -501.25776859 1439.67034126 -503.74697583 1442.1719965 C-528.70939398 1467.23548663 -528.70939398 1467.23548663 -541.90061283 1473.50642776 C-542.56528568 1473.8267598 -543.22995853 1474.14709183 -543.91477299 1474.47713089 C-563.2983105 1483.43249849 -584.08677834 1483.35605694 -604.11155033 1476.31892776 C-613.19251614 1472.69607526 -620.75990735 1467.55279846 -628.08811283 1461.13142776 C-628.77647221 1460.53845901 -629.46483158 1459.94549026 -630.17405033 1459.33455276 C-643.50585174 1447.00395383 -651.99419287 1428.1976817 -653.08811283 1410.13142776 C-653.16739017 1408.84558792 -653.16739017 1408.84558792 -653.24826908 1407.53377151 C-653.95598017 1384.67162634 -645.28962403 1365.55143861 -629.85000679 1349.06922839 C-622.54434323 1341.37254374 -615.00020869 1333.90614657 -607.49083957 1326.40931705 C-604.95757048 1323.87914474 -602.42725085 1321.34602535 -599.89653206 1318.81330267 C-595.45374894 1314.36779786 -591.00912586 1309.92413945 -586.56327298 1305.48170473 C-579.9078561 1298.8313847 -573.25535434 1292.1781541 -566.60340286 1285.52436804 C-555.26457452 1274.18257951 -543.92338723 1262.84315251 -532.58090687 1251.50501633 C-521.09046431 1240.01895521 -509.60111776 1228.53179942 -498.11310291 1217.04331017 C-497.38692901 1216.31710757 -496.6607551 1215.59090497 -495.91257593 1214.84269623 C-492.20967754 1211.13964146 -488.50679694 1207.43656891 -484.80392261 1203.73349008 C-458.0167224 1176.94488314 -431.22710571 1150.15869386 -404.43620396 1123.37378883 C-377.9073154 1096.85082416 -351.37946328 1070.32682354 -324.85299778 1043.80143547 C-323.61695689 1042.5654462 -323.61695689 1042.5654462 -322.35594548 1041.30448745 C-314.82964752 1033.77850269 -307.30336232 1026.25250518 -299.77709241 1018.72649236 C-281.06822435 1000.01826367 -262.35919633 981.31019495 -243.6500597 962.60223484 C-242.79811819 961.75034664 -241.94617667 960.89845845 -241.06841875 960.02075546 C-199.63355427 918.58851205 -158.19684681 877.15811197 -116.75998783 835.72786331 C-102.38175663 821.35192378 -88.00353357 806.9759761 -73.62534428 792.59999466 C-72.73359888 791.70838621 -71.84185348 790.81677776 -70.9230855 789.89815088 C-29.46249361 748.44390392 11.99678835 706.98834698 53.45573279 665.53245239 C56.14751767 662.84086557 58.83930313 660.14927931 61.53108869 657.45769317 C79.36979925 639.6203024 97.20848723 621.78288906 115.04716011 603.94546061 C150.54122069 568.45387648 186.03541389 532.96242496 221.52969819 497.47106457 C223.22000105 495.78090095 224.91030381 494.09073724 226.60060648 492.40057344 C302.68716488 416.32026755 378.77526579 340.24150441 454.86403561 264.16341019 C455.93265863 263.09493707 455.93265863 263.09493707 457.02286999 262.00487864 C492.6524482 226.38030082 528.28211322 190.75580982 563.91188717 155.13142776 C562.69032057 155.13045096 561.46875398 155.12947415 560.21017021 155.12846774 C506.36037253 155.0852115 452.51057915 155.03824963 398.66080379 154.97244644 C397.84522688 154.97145088 397.02964996 154.97045531 396.18935859 154.96942957 C378.46362164 154.94776979 360.73788559 154.92544701 343.01215034 154.90244148 C334.31914285 154.89116321 325.62613518 154.88003141 316.9331274 154.86897659 C316.06808003 154.86787403 315.20303265 154.86677146 314.31177172 154.86563549 C286.28557339 154.82998269 258.25937625 154.80399716 230.2331634 154.78303808 C201.42664977 154.7614443 172.62016288 154.73007121 143.81367379 154.68643663 C139.7426526 154.68027461 135.67163124 154.6742241 131.60060978 154.6682415 C130.79939385 154.66706062 129.99817791 154.66587974 129.17268271 154.66466307 C116.28815759 154.64595958 103.40364536 154.63753001 90.51910833 154.63296652 C77.55802342 154.6281558 64.59698753 154.612464 51.63592892 154.58576211 C43.94057073 154.57023645 36.24530931 154.56295697 28.54993634 154.56765847 C22.79480472 154.5702533 17.03979154 154.55719488 11.28469462 154.53819225 C8.96278015 154.53293544 6.64084761 154.53267774 4.31893336 154.53803214 C-22.0435962 154.59261459 -43.82522722 150.23900931 -63.77951908 131.52986526 C-79.60023327 115.09345492 -85.67236784 94.71817224 -85.37326908 72.40095901 C-84.71131257 54.10900508 -76.04582767 35.55214464 -63.42405033 22.39705276 C-45.38531595 5.6632481 -24.0995289 -0.03532631 0 0 Z " stroke="CurrentColor" transform="translate(1325.0881128311157,18.868572235107422)"/>
</svg>
